<svg width="561" height="460" viewBox="0 0 561 460" fill="none" xmlns="http://www.w3.org/2000/svg">
<mask id="mask0_8795_2020" style="mask-type:luminance" maskUnits="userSpaceOnUse" x="266" y="414" width="37" height="37">
<path d="M302.461 414.195H266.461V450.195H302.461V414.195Z" fill="white"/>
</mask>
<g mask="url(#mask0_8795_2020)">
<path d="M284.463 419.73L302.062 414.544L296.922 432.195L302.062 449.796L284.463 444.66L266.812 449.796L271.992 432.195L266.812 414.544L284.463 419.73Z" fill="black" stroke="white" stroke-miterlimit="10"/>
</g>
<mask id="mask1_8795_2020" style="mask-type:luminance" maskUnits="userSpaceOnUse" x="31" y="300" width="100" height="100">
<path d="M130.912 349.923L81.1836 300.195L31.4557 349.923L81.1836 399.651L130.912 349.923Z" fill="white"/>
</mask>
<g mask="url(#mask1_8795_2020)">
<path d="M98.4023 332.704L129.878 349.854L98.4023 367.142L81.1833 398.549L63.9643 367.142L32.4883 349.854L63.9643 332.704L81.1833 301.159L98.4023 332.704Z" fill="url(#paint0_linear_8795_2020)" stroke="white" stroke-miterlimit="10"/>
</g>
<path d="M167.053 279.595C167.014 279.595 166.975 279.595 166.975 279.595L146.458 277.401C146.34 277.401 146.223 277.362 146.105 277.284C141.642 276.578 136.003 270.938 131.892 263.025C127.546 254.643 126.254 246.495 128.642 242.656L128.681 242.539L139.958 222.562C140.193 222.131 140.702 222.013 141.133 222.248C141.563 222.483 141.681 222.993 141.446 223.423L130.169 243.479C130.169 243.518 130.13 243.557 130.13 243.557C128.094 246.73 129.464 254.564 133.419 262.203C137.295 269.684 142.895 275.325 146.732 275.599C146.849 275.599 147.006 275.638 147.084 275.717L167.132 277.871C167.602 277.91 167.954 278.341 167.876 278.811C167.837 279.242 167.484 279.595 167.053 279.595Z" fill="black"/>
<path d="M408.561 261.38C397.051 261.38 383.191 254.956 368.271 242.461C347.951 225.461 328.021 199.255 312.161 168.623C288.161 122.245 278.251 74.6914 286.951 47.4684C289.841 38.3804 294.701 32.0344 301.321 28.6264C314.471 21.8894 332.99 27.6084 353.51 44.7654C373.83 61.7654 393.76 87.9704 409.62 118.602C433.66 164.981 443.571 212.534 434.841 239.758C431.941 248.846 427.081 255.191 420.471 258.599C416.901 260.479 412.911 261.38 408.561 261.38ZM313.301 27.6084C309.271 27.6084 305.51 28.4304 302.14 30.1934C295.91 33.3664 291.37 39.3984 288.63 48.0554C280.06 74.8874 289.921 121.932 313.731 167.918C346.151 230.474 393.681 270.507 419.721 257.15C425.951 253.977 430.491 247.945 433.231 239.288C441.811 212.456 431.94 165.411 408.13 119.425C379.9 64.9774 340.281 27.6084 313.301 27.6084Z" fill="black"/>
<path d="M357.54 179.043C350.81 179.043 341.409 170.347 334.639 157.225C328.999 146.335 326.689 135.132 328.769 128.669C329.509 126.397 330.72 124.791 332.41 123.929C339.06 120.521 350.459 129.805 358.369 145.042C364.009 155.932 366.319 167.135 364.239 173.598C363.499 175.87 362.28 177.476 360.6 178.338C359.66 178.808 358.64 179.043 357.54 179.043ZM335.46 124.909C334.64 124.909 333.86 125.065 333.19 125.418C331.9 126.084 330.959 127.337 330.369 129.178C328.449 135.211 330.679 145.943 336.129 156.441C343.329 170.347 354.18 179.709 359.78 176.81C361.07 176.144 362.01 174.891 362.6 173.05C364.51 166.978 362.24 156.285 356.84 145.787C350.5 133.605 341.41 124.909 335.46 124.909Z" fill="#B9FF66"/>
<path d="M168.424 279.595C168.385 279.595 168.385 279.595 168.346 279.595C168.189 279.595 167.993 279.556 167.837 279.556L146.458 277.401C146.34 277.401 146.223 277.362 146.105 277.284C141.642 276.579 136.003 270.938 131.892 263.025C127.546 254.643 126.254 246.495 128.642 242.657L128.681 242.539L138.979 224.599C139.371 223.58 139.88 222.679 140.506 221.935C140.78 221.583 141.289 221.543 141.642 221.778C141.994 222.053 142.112 222.523 141.877 222.914L140.428 225.382C138.118 231.61 140.389 243.832 146.34 255.27C152.801 267.765 161.611 276.892 167.915 277.715L168.385 277.754C168.855 277.793 169.207 278.224 169.168 278.694C169.207 279.242 168.855 279.595 168.424 279.595ZM147.084 275.717L162.042 277.245C156.286 273.562 149.943 265.963 144.892 256.171C139.997 246.73 137.57 236.938 137.961 229.887L130.169 243.479C130.169 243.518 130.13 243.558 130.13 243.558C128.094 246.73 129.464 254.565 133.419 262.203C137.295 269.685 142.895 275.325 146.732 275.599C146.849 275.599 147.006 275.639 147.084 275.717Z" fill="black"/>
<path d="M332.798 124.674C326.648 127.807 327.548 142.34 335.378 156.833C348.498 181.08 358.948 178.22 360.168 177.789C360.208 177.789 360.208 177.829 360.168 177.829L337.648 195.965C331.038 186.681 324.728 176.34 318.938 165.176C313.418 154.483 308.758 143.828 305.078 133.487L332.798 124.674Z" fill="black"/>
<path d="M168.424 278.733C161.767 278.263 152.448 268.824 145.674 255.78C138.509 241.953 136.825 227.655 141.211 222.562L129.503 242.931L129.425 243.089C127.193 246.536 128.485 254.486 132.675 262.595C136.786 270.586 142.581 276.148 146.653 276.461L146.536 276.54L168.424 278.733Z" fill="white"/>
<path d="M538.041 376.528C536.141 379.972 532.601 382.463 527.501 384.008C522.411 385.554 515.791 386.138 507.831 385.795C491.911 385.108 470.711 380.719 445.701 373.063C395.681 357.753 330.511 329.411 262.071 291.66C193.637 253.91 134.903 213.912 95.2709 179.77C75.4509 162.696 60.4289 147.104 51.3559 134.005C46.8179 127.454 43.7849 121.55 42.3729 116.413C40.9619 111.279 41.1809 106.957 43.0809 103.514C44.9809 100.07 48.5189 97.5793 53.6139 96.0343C58.7119 94.4883 65.3239 93.9043 73.2849 94.2473C89.2059 94.9343 110.408 99.3233 135.422 106.979C185.442 122.289 250.601 150.631 319.041 188.382C387.481 226.132 446.221 266.129 485.851 300.272C505.671 317.345 520.691 332.937 529.761 346.037C534.301 352.588 537.331 358.492 538.751 363.629C540.161 368.763 539.941 373.084 538.041 376.528Z" stroke="black"/>
<path d="M517.807 413.202C515.907 416.646 512.367 419.137 507.267 420.682C502.177 422.228 495.557 422.812 487.597 422.468C471.677 421.782 450.477 417.393 425.467 409.737C375.447 394.427 310.277 366.085 241.837 328.334C173.402 290.583 114.669 250.586 75.036 216.444C55.217 199.37 40.1949 183.778 31.1209 170.678C26.5839 164.128 23.55 158.224 22.139 153.087C20.727 147.953 20.947 143.631 22.847 140.187C24.746 136.744 28.284 134.252 33.38 132.707C38.478 131.162 45.0899 130.578 53.0509 130.921C68.9709 131.608 90.173 135.997 115.187 143.653C165.208 158.962 230.37 187.305 298.807 225.055C367.247 262.806 425.977 302.803 465.617 336.945C485.437 354.019 500.457 369.611 509.527 382.711C514.067 389.262 517.097 395.166 518.517 400.302C519.927 405.436 519.707 409.758 517.807 413.202Z" stroke="black"/>
<path d="M497.579 449.876C495.679 453.32 492.139 455.811 487.049 457.356C481.949 458.902 475.339 459.486 467.369 459.143C451.449 458.456 430.249 454.067 405.239 446.411C355.219 431.101 290.059 402.759 221.615 365.008C153.176 327.258 94.442 287.261 54.81 253.118C34.99 236.045 19.968 220.453 10.895 207.353C6.357 200.802 3.32397 194.898 1.91197 189.761C0.500971 184.627 0.719979 180.306 2.61998 176.862C4.51998 173.418 8.058 170.927 13.153 169.382C18.251 167.836 24.863 167.252 32.824 167.595C48.745 168.282 69.947 172.671 94.961 180.327C144.981 195.637 210.143 223.979 278.579 261.73C347.019 299.48 405.759 339.478 445.389 373.62C465.209 390.694 480.229 406.286 489.299 419.385C493.839 425.936 496.869 431.84 498.289 436.977C499.699 442.111 499.479 446.432 497.579 449.876Z" stroke="black"/>
<path d="M104.957 107.195C113.517 107.195 120.457 100.256 120.457 91.6953C120.457 83.1349 113.517 76.1953 104.957 76.1953C96.3966 76.1953 89.457 83.1349 89.457 91.6953C89.457 100.256 96.3966 107.195 104.957 107.195Z" fill="url(#paint1_linear_8795_2020)"/>
<path d="M394.461 432.195C399.984 432.195 404.461 427.718 404.461 422.195C404.461 416.672 399.984 412.195 394.461 412.195C388.938 412.195 384.461 416.672 384.461 422.195C384.461 427.718 388.938 432.195 394.461 432.195Z" fill="url(#paint2_linear_8795_2020)"/>
<path d="M54.957 75.1953C67.9357 75.1953 78.457 64.674 78.457 51.6953C78.457 38.7166 67.9357 28.1953 54.957 28.1953C41.9783 28.1953 31.457 38.7166 31.457 51.6953C31.457 64.674 41.9783 75.1953 54.957 75.1953Z" fill="black"/>
<path d="M279.428 370.785C273.128 372.939 265.918 368.669 263.418 361.266L224.414 247.004L247.198 239.209L286.238 353.628C288.748 360.953 285.688 368.63 279.428 370.785Z" fill="url(#paint3_linear_8795_2020)"/>
<path d="M243.17 140.577L169.442 193.183L140.741 222.993L129.464 242.931L129.425 243.087C127.193 246.534 128.485 254.486 132.675 262.594C136.786 270.585 142.581 276.148 146.653 276.461L146.536 276.539L168.189 278.89L208.714 272.426L294.74 241.638L401.67 259.97L402.42 260.009C375.55 254.995 339.3 219.075 312.95 168.271C286.63 117.505 278.25 67.3273 289.8 42.5713H289.77L243.76 139.323L243.17 140.577Z" fill="url(#paint4_linear_8795_2020)"/>
<path d="M408.561 261.38C397.051 261.38 383.191 254.956 368.271 242.461C347.951 225.46 328.021 199.255 312.161 168.623C288.161 122.245 278.251 74.6912 286.951 47.4672C289.841 38.3802 294.701 32.0342 301.321 28.6262C310.131 24.0822 321.641 25.2182 334.601 31.8772C347.011 38.2622 360.441 49.5832 373.521 64.5852C373.831 64.9382 373.791 65.4862 373.441 65.7992C373.091 66.1132 372.541 66.0742 372.231 65.7212C345.681 35.2462 318.82 21.6152 302.14 30.1932C295.91 33.3662 291.37 39.3982 288.63 48.0552C280.06 74.8872 289.921 121.932 313.731 167.918C341.921 222.327 381.591 259.735 408.521 259.735C412.561 259.735 416.321 258.912 419.681 257.15C425.911 253.977 430.451 247.945 433.191 239.288C441.771 212.456 431.901 165.411 408.091 119.425C401.011 105.715 393.021 92.8272 384.441 81.1152C384.171 80.7242 384.251 80.1752 384.641 79.9012C385.031 79.6272 385.581 79.7052 385.851 80.0972C394.511 91.8872 402.491 104.853 409.661 118.641C433.661 164.98 443.571 212.534 434.841 239.758C431.941 248.845 427.081 255.191 420.471 258.599C416.901 260.479 412.911 261.38 408.561 261.38Z" fill="black"/>
<path d="M402.611 246.769C392.511 246.769 380.371 241.129 367.291 230.2C349.521 215.315 332.051 192.361 318.191 165.568C297.171 124.987 288.511 83.3484 296.111 59.4934C298.651 51.5024 302.921 45.9404 308.761 42.9244C322.151 36.0694 341.841 43.9814 362.831 64.6244C363.181 64.9774 363.181 65.4864 362.831 65.8394C362.481 66.1914 361.971 66.1914 361.621 65.8394C341.181 45.7444 322.191 37.9104 309.541 44.4514C304.141 47.2324 300.181 52.4424 297.751 60.0024C290.281 83.4264 298.891 124.556 319.721 164.784C344.351 212.377 379.001 245.046 402.571 245.046C406.101 245.046 409.351 244.302 412.321 242.813C417.731 240.032 421.681 234.822 424.111 227.262C431.591 203.838 422.971 162.708 402.141 122.48C395.841 110.337 388.791 98.9384 381.191 88.6364C380.921 88.2444 381.001 87.6964 381.391 87.4224C381.781 87.1484 382.331 87.2264 382.601 87.6184C390.281 98.0374 397.371 109.475 403.711 121.696C424.731 162.277 433.391 203.916 425.791 227.771C423.251 235.762 418.981 241.325 413.141 244.341C409.931 245.947 406.411 246.769 402.611 246.769Z" fill="black"/>
<path d="M402.487 260.793L401.707 260.754C401.667 260.754 401.627 260.754 401.587 260.754L294.817 242.461L292.347 242.03C279.227 239.719 262.587 222.914 250.877 200.234C237.607 174.46 236.937 151.506 241.957 141.086L242.537 139.911L289.017 42.2195C289.137 42.0235 289.297 41.8665 289.527 41.7885C289.767 41.7095 289.997 41.7095 290.197 41.8275C290.627 42.0235 290.817 42.5325 290.627 42.9635C278.837 68.2285 288.157 118.445 313.767 167.879C339.407 217.391 375.157 254.055 402.687 259.108C403.117 259.187 403.427 259.578 403.387 260.048C403.277 260.44 402.917 260.793 402.487 260.793ZM285.297 53.9705L244.067 140.655L243.477 141.831C238.507 152.173 239.957 175.283 252.407 199.413C263.877 221.661 280.047 238.113 292.657 240.306L295.127 240.737L391.017 257.189C365.057 245.79 334.717 212.143 312.197 168.663C289.837 125.497 279.857 81.6645 285.297 53.9705Z" fill="black"/>
<path d="M207.262 272.583L208.985 272.23C199.666 274.189 184.944 260.087 174.568 240.071C163.957 219.624 161.96 199.216 169.477 193.183L168.499 194.163L141.286 222.444C136.822 227.458 138.467 241.834 145.671 255.739C152.602 269.136 162.43 278.694 169.125 278.654L207.262 272.583Z" fill="url(#paint5_linear_8795_2020)"/>
<path d="M448.639 68.7922C466.539 59.3892 473.469 37.3112 464.109 19.4802C454.749 1.65023 432.649 -5.18178 414.749 4.22222C396.849 13.6262 389.929 35.7032 399.289 53.5342C408.649 71.3652 430.739 78.1962 448.639 68.7922Z" fill="black"/>
<path d="M415.019 28.4304C416.749 26.0804 419.289 24.6314 422.189 24.3174C424.379 24.0824 426.419 24.5524 428.339 25.7274C429.319 26.3154 430.179 27.0594 430.999 27.9604C431.589 26.9034 432.289 25.9624 433.109 25.1794C434.719 23.6124 436.639 22.7114 438.789 22.4764C441.689 22.1634 444.509 23.0254 446.699 24.9444C448.849 26.8244 450.229 29.5664 450.579 32.6614C450.929 35.8344 450.069 38.8894 447.879 42.2584C445.919 45.2744 442.939 48.4074 439.499 52.0894C438.319 53.3434 436.989 54.7534 435.619 56.2424C435.269 56.6334 434.759 56.9084 434.209 56.9474C433.659 57.0254 433.149 56.8684 432.679 56.5554C430.999 55.3804 429.389 54.2834 427.979 53.3434C423.829 50.5234 420.229 48.0944 417.649 45.5874C414.749 42.8064 413.259 39.9864 412.909 36.8134C412.599 33.7184 413.339 30.7414 415.019 28.4304Z" fill="white"/>
<path d="M526.459 81.4685C507.509 81.4685 492.039 66.0355 492.039 47.0375C492.039 28.0785 507.469 12.6064 526.459 12.6064C545.449 12.6064 560.879 28.0395 560.879 47.0375C560.879 65.9965 545.449 81.4685 526.459 81.4685ZM526.459 14.3295C508.449 14.3295 493.759 28.9795 493.759 47.0375C493.759 65.0565 508.409 79.7454 526.459 79.7454C544.469 79.7454 559.149 65.0955 559.149 47.0375C559.149 29.0185 544.509 14.3295 526.459 14.3295Z" fill="#B9FF66"/>
<path d="M535.538 50.3664C533.658 50.3664 532.018 51.2674 530.918 52.6774L519.608 48.2514C519.608 48.0944 519.648 47.9774 519.648 47.8204C519.648 47.5464 519.608 47.2724 519.568 46.9984L531.158 41.6314C532.208 42.8454 533.778 43.6294 535.538 43.6684C538.748 43.6684 541.418 41.0444 541.418 37.7924C541.418 34.5414 538.788 31.8784 535.538 31.8784C532.328 31.8784 529.668 34.5024 529.668 37.7534C529.668 38.0274 529.708 38.3024 529.748 38.5764L518.158 43.9424C517.098 42.7284 515.528 41.9454 513.768 41.9054C510.558 41.9054 507.898 44.5304 507.898 47.7814C507.898 51.0324 510.518 53.6964 513.768 53.6964C515.648 53.6964 517.298 52.7954 518.388 51.3854L529.708 55.8114C529.708 55.9684 529.668 56.0854 529.668 56.2424C529.668 59.4934 532.288 62.1574 535.538 62.1574C538.748 62.1574 541.418 59.5324 541.418 56.2814C541.378 53.0304 538.748 50.4054 535.538 50.3664Z" fill="black"/>
<path d="M535.988 177.188C551.348 166.517 555.208 145.478 544.608 130.194C534.008 114.91 512.948 111.17 497.588 121.84C482.218 132.51 478.358 153.55 488.958 168.834C499.568 184.118 520.618 187.858 535.988 177.188Z" fill="black"/>
<path d="M508.331 165.568L503.401 138.814C503.161 137.443 504.421 136.307 505.751 136.66L534.921 144.925C536.411 145.356 536.761 147.275 535.541 148.215L511.271 166.704C510.211 167.566 508.611 166.978 508.331 165.568Z" fill="white"/>
<path d="M516.461 286.776C535.431 277.535 543.371 254.748 534.191 235.881C525.011 217.014 502.181 209.211 483.211 218.452C464.231 227.694 456.291 250.481 465.471 269.348C474.651 288.215 497.481 296.018 516.461 286.776Z" fill="url(#paint6_linear_8795_2020)"/>
<path d="M519.298 246.456C518.898 255.975 502.808 278.224 498.968 283.433C498.578 283.982 497.758 283.943 497.408 283.355C494.978 279.438 486.948 266.277 482.758 255.622C481.078 251.392 480.018 247.553 480.138 244.85C480.568 234.039 489.688 225.617 500.498 226.048C511.308 226.557 519.728 235.645 519.298 246.456Z" fill="black"/>
<path d="M276.017 372.195C274.177 372.195 272.297 371.764 270.497 370.863C266.857 369.061 263.957 365.693 262.547 361.54L223.552 247.279C223.395 246.848 223.63 246.339 224.1 246.182L246.887 238.387C247.127 238.308 247.357 238.308 247.557 238.426C247.747 238.543 247.907 238.7 247.987 238.935L287.027 353.354C289.647 361.109 286.357 369.296 279.657 371.607C278.527 371.999 277.277 372.195 276.017 372.195ZM225.51 247.553L264.237 360.992C265.487 364.713 268.067 367.769 271.277 369.335C273.867 370.589 276.647 370.824 279.157 369.962C284.947 367.964 287.767 360.757 285.417 353.902L246.657 240.306L225.51 247.553Z" fill="black"/>
<path d="M360.219 177.535C366.349 174.354 365.169 159.946 357.589 145.355C350.019 130.763 338.919 121.512 332.789 124.693C326.669 127.874 327.849 142.281 335.419 156.873C342.999 171.465 354.099 180.715 360.219 177.535Z" fill="#B9FF66"/>
<path d="M168.227 279.712C168.188 279.712 168.148 279.712 168.148 279.712L146.496 277.362C146.378 277.362 146.261 277.323 146.143 277.245C141.679 276.539 136.041 270.899 131.93 262.986C127.544 254.643 126.252 246.495 128.641 242.657L128.68 242.539L139.957 222.562C139.996 222.484 140.035 222.444 140.074 222.405L168.775 192.596C168.814 192.557 168.853 192.518 168.892 192.479L242.428 139.989L288.938 42.1804C289.058 41.9844 289.218 41.8274 289.448 41.7494C289.688 41.6704 289.918 41.6704 290.118 41.7884C290.548 41.9844 290.748 42.4934 290.548 42.9244C278.758 68.1894 288.078 118.406 313.688 167.84C339.338 217.352 375.088 254.016 402.608 259.069C403.038 259.148 403.358 259.539 403.318 260.009C403.278 260.44 402.888 260.754 402.458 260.793L401.708 260.754C401.668 260.754 401.628 260.754 401.588 260.754L294.858 242.461L209.026 273.171C208.987 273.171 208.909 273.21 208.87 273.21L168.344 279.673C168.305 279.712 168.266 279.712 168.227 279.712ZM147.122 275.717L168.227 277.989L208.557 271.526L294.538 240.776C294.698 240.737 294.818 240.698 294.968 240.737L391.058 257.189C365.098 245.79 334.758 212.142 312.238 168.663C289.878 125.496 279.898 81.6644 285.378 53.9704L243.948 140.93C243.878 141.047 243.798 141.165 243.678 141.243L170.028 193.85L141.444 223.502L130.168 243.479C130.168 243.518 130.129 243.558 130.129 243.558C128.093 246.73 129.463 254.565 133.418 262.203C137.294 269.685 142.893 275.325 146.73 275.599C146.887 275.599 147.005 275.639 147.122 275.717Z" fill="black"/>
<path d="M243.288 140.264L289.757 42.5322H289.798C278.248 67.2882 286.668 117.466 312.938 168.232C339.298 219.076 375.547 254.995 402.487 259.931L401.747 259.892L294.968 241.599L292.507 241.168C280.087 238.974 263.528 222.836 251.668 199.803C239.488 176.183 237.338 152.642 242.738 141.439L243.288 140.264Z" fill="white"/>
<path d="M169.087 279.555C161.96 279.555 152.054 269.959 144.889 256.17C137.606 242.069 135.766 227.341 140.621 221.896L167.325 194.163C167.795 193.536 168.343 192.988 168.93 192.518C169.282 192.243 169.792 192.283 170.105 192.596C170.418 192.948 170.418 193.458 170.105 193.771L168.578 195.377C163.135 202.663 165.837 221.308 175.352 239.679C185.61 259.5 199.941 273.092 208.712 271.447L208.829 271.408C209.299 271.33 209.73 271.604 209.847 272.074C209.926 272.544 209.652 272.975 209.182 273.092C209.143 273.092 209.103 273.092 209.064 273.131L207.459 273.445H207.42L169.282 279.516C169.204 279.516 169.126 279.555 169.087 279.555ZM165.054 199.02L141.913 223.071C137.606 227.928 139.564 242.108 146.455 255.387C153.19 268.392 162.704 277.793 169.087 277.832L202.76 272.465C193.676 269.253 182.478 257.15 173.825 240.502C165.602 224.638 162.43 208.499 165.054 199.02Z" fill="black"/>
<path d="M337.65 196.826C337.61 196.826 337.58 196.826 337.54 196.826C337.3 196.787 337.11 196.67 336.95 196.474C330.17 186.955 323.87 176.536 318.19 165.607C312.75 155.109 308.05 144.416 304.29 133.84C304.21 133.605 304.21 133.369 304.33 133.174C304.45 132.978 304.61 132.821 304.84 132.743L332.56 123.929C332.99 123.812 333.46 124.008 333.62 124.438C333.78 124.869 333.62 125.339 333.23 125.535C331.9 126.201 330.92 127.533 330.33 129.492C328.41 135.641 330.76 146.531 336.2 156.52C349.01 180.179 358.88 177.476 359.93 177.084C360.32 176.928 360.79 177.123 360.99 177.476C361.19 177.829 361.11 178.338 360.79 178.612L338.2 196.631C338.05 196.748 337.85 196.826 337.65 196.826ZM306.21 134.035C309.93 144.259 314.47 154.6 319.72 164.785C325.2 175.361 331.31 185.428 337.85 194.711L357.39 178.965C352.92 178.769 344.51 175.439 334.64 157.225C328.92 146.688 326.57 135.563 328.65 128.865C328.92 128.003 329.24 127.259 329.63 126.554L306.21 134.035Z" fill="black"/>
<path d="M550.189 70.7872C563.299 57.6782 563.299 36.4232 550.189 23.3132C537.089 10.2042 515.839 10.2042 502.739 23.3132C489.629 36.4232 489.629 57.6782 502.739 70.7872C515.839 83.8972 537.089 83.8972 550.189 70.7872Z" fill="url(#paint7_linear_8795_2020)"/>
<path d="M499.638 291.542C495.568 291.542 491.418 290.915 487.378 289.544C477.518 286.254 469.528 279.36 464.908 270.037C460.288 260.753 459.578 250.216 462.908 240.345C469.798 220.016 491.958 208.93 512.358 215.707C522.228 218.997 530.218 225.891 534.838 235.214C539.458 244.497 540.158 255.034 536.838 264.905C531.278 281.201 515.968 291.542 499.638 291.542ZM500.028 215.472C484.408 215.472 469.758 225.343 464.478 240.933C461.298 250.373 461.968 260.44 466.398 269.293C470.818 278.184 478.448 284.804 487.888 287.938C507.388 294.401 528.568 283.825 535.148 264.396C538.318 254.956 537.658 244.889 533.228 236.036C528.808 227.145 521.168 220.525 511.738 217.391C507.858 216.059 503.908 215.472 500.028 215.472Z" fill="black"/>
<path d="M506.047 252.021C509.547 248.518 509.547 242.839 506.047 239.336C502.547 235.833 496.867 235.833 493.367 239.336C489.867 242.839 489.867 248.518 493.367 252.021C496.867 255.524 502.547 255.524 506.047 252.021Z" fill="#B9FF66"/>
<defs>
<linearGradient id="paint0_linear_8795_2020" x1="81.1833" y1="301.159" x2="81.1833" y2="398.549" gradientUnits="userSpaceOnUse">
<stop stop-color="#FF6290"/>
<stop offset="0.5" stop-color="#FFABBB"/>
<stop offset="1" stop-color="#FF5286"/>
</linearGradient>
<linearGradient id="paint1_linear_8795_2020" x1="113.5" y1="79" x2="96.5" y2="104.5" gradientUnits="userSpaceOnUse">
<stop stop-color="#E3D55E"/>
<stop offset="1" stop-color="#70E769"/>
</linearGradient>
<linearGradient id="paint2_linear_8795_2020" x1="399" y1="413.5" x2="389.5" y2="430.5" gradientUnits="userSpaceOnUse">
<stop stop-color="#E3D55E"/>
<stop offset="1" stop-color="#70E769"/>
</linearGradient>
<linearGradient id="paint3_linear_8795_2020" x1="255.765" y1="239.209" x2="255.765" y2="371.344" gradientUnits="userSpaceOnUse">
<stop stop-color="#E3D55E"/>
<stop offset="1" stop-color="#70E769"/>
</linearGradient>
<linearGradient id="paint4_linear_8795_2020" x1="365.5" y1="43" x2="144" y2="279" gradientUnits="userSpaceOnUse">
<stop stop-color="#B11D6B"/>
<stop offset="1" stop-color="#FF8E44"/>
</linearGradient>
<linearGradient id="paint5_linear_8795_2020" x1="173.899" y1="193.183" x2="173.899" y2="278.654" gradientUnits="userSpaceOnUse">
<stop stop-color="#E3D55E"/>
<stop offset="1" stop-color="#70E769"/>
</linearGradient>
<linearGradient id="paint6_linear_8795_2020" x1="517" y1="219.5" x2="478.5" y2="284" gradientUnits="userSpaceOnUse">
<stop stop-color="#E3D55E"/>
<stop offset="1" stop-color="#70E769"/>
</linearGradient>
<linearGradient id="paint7_linear_8795_2020" x1="545" y1="18.5" x2="509" y2="76.5" gradientUnits="userSpaceOnUse">
<stop stop-color="#E3D55E"/>
<stop offset="1" stop-color="#70E769"/>
</linearGradient>
</defs>
</svg>
